<svg width="18" height="19" viewBox="0 0 18 19" fill="none" xmlns="http://www.w3.org/2000/svg">
<path d="M2.67188 1.625H15.3281V5.5625C15.3281 9.05743 12.4949 11.8906 9 11.8906C5.50507 11.8906 2.67188 9.05743 2.67188 5.5625V1.625Z" fill="#D9D9D9"/>
<path d="M2.67188 1.625H15.3281V5.5625C15.3281 9.05743 12.4949 11.8906 9 11.8906C5.50507 11.8906 2.67188 9.05743 2.67188 5.5625V1.625Z" fill="#6466FB"/>
<foreignObject x="1.58906" y="6.02656" width="14.8219" height="12.4312"><div xmlns="http://www.w3.org/1999/xhtml" style="backdrop-filter:blur(0.54px);clip-path:url(#bgblur_0_3532_25752_clip_path);height:100%;width:100%"></div></foreignObject><path data-figma-bg-blur-radius="1.08281" d="M2.67188 12.2422C2.67188 9.40741 4.96991 7.10938 7.80469 7.10938H10.1953C13.0301 7.10938 15.3281 9.40741 15.3281 12.2422V17.375H2.67188V12.2422Z" fill="#6466FB" fill-opacity="0.4"/>
<defs>
<clipPath id="bgblur_0_3532_25752_clip_path" transform="translate(-1.58906 -6.02656)"><path d="M2.67188 12.2422C2.67188 9.40741 4.96991 7.10938 7.80469 7.10938H10.1953C13.0301 7.10938 15.3281 9.40741 15.3281 12.2422V17.375H2.67188V12.2422Z"/>
</clipPath></defs>
</svg>
