<svg width="18" height="18" viewBox="0 0 18 18" fill="none" xmlns="http://www.w3.org/2000/svg">
<path d="M5 7.5C6.38071 7.5 7.5 6.38071 7.5 5C7.5 3.61929 6.38071 2.5 5 2.5C3.61929 2.5 2.5 3.61929 2.5 5C2.5 6.38071 3.61929 7.5 5 7.5Z" stroke="#302D3E" stroke-width="1.5" stroke-linecap="round" stroke-linejoin="round"/>
<path d="M13 7.5C14.3807 7.5 15.5 6.38071 15.5 5C15.5 3.61929 14.3807 2.5 13 2.5C11.6193 2.5 10.5 3.61929 10.5 5C10.5 6.38071 11.6193 7.5 13 7.5Z" stroke="#302D3E" stroke-width="1.5" stroke-linecap="round" stroke-linejoin="round"/>
<path d="M5 15.5C6.38071 15.5 7.5 14.3807 7.5 13C7.5 11.6193 6.38071 10.5 5 10.5C3.61929 10.5 2.5 11.6193 2.5 13C2.5 14.3807 3.61929 15.5 5 15.5Z" stroke="#302D3E" stroke-width="1.5" stroke-linecap="round" stroke-linejoin="round"/>
<path d="M13 15.5C14.3807 15.5 15.5 14.3807 15.5 13C15.5 11.6193 14.3807 10.5 13 10.5C11.6193 10.5 10.5 11.6193 10.5 13C10.5 14.3807 11.6193 15.5 13 15.5Z" stroke="#302D3E" stroke-width="1.5" stroke-linecap="round" stroke-linejoin="round"/>
</svg>
